<svg width="8" height="8" viewBox="0 0 8 8" fill="none" xmlns="http://www.w3.org/2000/svg">
<path d="M6.02598 4.87964C5.89911 4.79506 5.77223 4.75276 5.64536 4.92193L5.13786 5.5986C5.01098 5.68318 4.9264 5.72547 4.75723 5.64089C4.12286 5.30256 3.23473 4.92193 2.47348 3.65318C2.43119 3.48401 2.51578 3.39943 2.60036 3.31485L2.98098 2.72276C3.06557 2.63818 3.02328 2.5536 2.98098 2.46902L2.47348 1.24256C2.34661 0.904224 2.21973 0.946516 2.09286 0.946516H1.75453C1.66994 0.946516 1.50078 0.988808 1.33161 1.15797C0.401194 2.08839 0.781818 3.39943 1.45848 4.24526C1.58536 4.41443 2.43119 5.93693 4.24973 6.74047C5.60307 7.33255 5.89911 7.24797 6.27973 7.16339C6.74494 7.1211 7.21015 6.74047 7.42161 6.35985C7.4639 6.23297 7.67536 5.68318 7.50619 5.5986" fill="white"/>
</svg>
